<svg width="18" height="18" viewBox="0 0 18 18" fill="none" xmlns="http://www.w3.org/2000/svg">
<path fill-rule="evenodd" clip-rule="evenodd" d="M7.01903 1.16298C7.2373 1.38065 7.23779 1.73405 7.02012 1.95232L4.32611 4.65377C4.10844 4.87204 3.75504 4.87253 3.53677 4.65486C3.3185 4.43719 3.31801 4.08378 3.53568 3.86551L6.22969 1.16407C6.44736 0.945794 6.80076 0.945307 7.01903 1.16298Z" fill="#E50D32"/>
<path fill-rule="evenodd" clip-rule="evenodd" d="M10.9715 1.16293C11.1898 0.945264 11.5432 0.945752 11.7609 1.16402L14.4549 3.86547C14.6725 4.08374 14.672 4.43714 14.4538 4.65481C14.2355 4.87248 13.8821 4.872 13.6644 4.65372L10.9704 1.95228C10.7527 1.73401 10.7532 1.3806 10.9715 1.16293Z" fill="#E50D32"/>
<path fill-rule="evenodd" clip-rule="evenodd" d="M2.35217 5.11491C2.27306 5.16789 2.11691 5.31489 2.11691 5.91166C2.11691 6.65539 2.29062 6.75524 2.31965 6.77193C2.36311 6.79698 2.44446 6.82387 2.60748 6.83585C2.73177 6.84499 2.85984 6.84402 3.01891 6.84283C3.07814 6.84239 3.14166 6.84191 3.21089 6.84191H14.7906C14.8599 6.84191 14.9234 6.84239 14.9826 6.84283C15.1417 6.84402 15.2698 6.84499 15.3941 6.83585C15.5571 6.82387 15.6378 6.79733 15.6813 6.77228C15.7103 6.75559 15.8846 6.65539 15.8846 5.91166C15.8846 5.31489 15.7285 5.16789 15.6494 5.11491C15.5102 5.02171 15.2655 4.98141 14.7906 4.98141H3.21089C2.73606 4.98141 2.49132 5.02171 2.35217 5.11491ZM1.73095 4.18743C2.18902 3.88062 2.77034 3.86511 3.21089 3.86511H14.7906C15.2312 3.86511 15.8125 3.88062 16.2706 4.18743C16.7887 4.53445 17.0009 5.13166 17.0009 5.91166C17.0009 6.76251 16.8088 7.41088 16.2387 7.73946C15.9835 7.8865 15.7084 7.93206 15.4759 7.94915C15.3023 7.96191 15.1093 7.96037 14.9371 7.959C14.8861 7.9586 14.8369 7.95821 14.7906 7.95821H3.21089C3.16459 7.95821 3.11541 7.9586 3.0644 7.959C2.89226 7.96037 2.69925 7.96191 2.52566 7.94915C2.29309 7.93206 2.018 7.8865 1.76286 7.73946C1.19273 7.41088 1.00061 6.76251 1.00061 5.91166C1.00061 5.13166 1.21284 4.53445 1.73095 4.18743Z" fill="#E50D32"/>
<path fill-rule="evenodd" clip-rule="evenodd" d="M15.4273 6.96328C15.7301 7.02134 15.9284 7.31383 15.8704 7.61657L14.6201 14.1356C14.4885 14.823 14.3165 15.5849 13.7808 16.1463C13.2212 16.7326 12.3744 17 11.1472 17H6.6597C5.50483 17 4.66287 16.7115 4.0839 16.1252C3.52066 15.5548 3.29392 14.7871 3.1694 14.0322L2.11992 7.60134C2.07027 7.29711 2.27665 7.01023 2.58089 6.96058C2.88512 6.91093 3.172 7.11731 3.22165 7.42155L4.27082 13.8505C4.27079 13.8503 4.27084 13.8507 4.27082 13.8505C4.38444 14.5391 4.56337 15.022 4.87821 15.3408C5.17739 15.6438 5.68616 15.8837 6.6597 15.8837H11.1472C12.2345 15.8837 12.7161 15.645 12.9733 15.3756C13.2543 15.0811 13.3875 14.6374 13.5237 13.9257L14.774 7.40632C14.8321 7.10358 15.1246 6.90522 15.4273 6.96328Z" fill="#E50D32"/>
<path d="M7.02012 1.95232L6.91391 1.8464V1.8464L7.02012 1.95232ZM7.01903 1.16298L6.91311 1.26919L7.01903 1.16298ZM4.32611 4.65377L4.43233 4.75969V4.75969L4.32611 4.65377ZM3.53568 3.86551L3.6419 3.97143L3.53568 3.86551ZM6.22969 1.16407L6.3359 1.26999V1.26999L6.22969 1.16407ZM11.7609 1.16402L11.8671 1.0581L11.8671 1.0581L11.7609 1.16402ZM14.4549 3.86547L14.3486 3.97139L14.4549 3.86547ZM13.6644 4.65372L13.5582 4.75964L13.6644 4.65372ZM10.9704 1.95228L10.8642 2.0582V2.0582L10.9704 1.95228ZM2.35217 5.11491L2.26869 4.99028H2.26869L2.35217 5.11491ZM2.31965 6.77193L2.39455 6.64197L2.3944 6.64188L2.31965 6.77193ZM2.60748 6.83585L2.59648 6.98545H2.59648L2.60748 6.83585ZM3.01891 6.84283L3.01779 6.69283L3.01891 6.84283ZM14.9826 6.84283L14.9837 6.69283L14.9826 6.84283ZM15.3941 6.83585L15.3831 6.68625L15.3941 6.83585ZM15.6813 6.77228L15.6065 6.64224L15.6064 6.64232L15.6813 6.77228ZM15.6494 5.11491L15.5659 5.23954H15.5659L15.6494 5.11491ZM1.73095 4.18743L1.64748 4.0628L1.73095 4.18743ZM16.2706 4.18743L16.354 4.0628H16.354L16.2706 4.18743ZM16.2387 7.73946L16.1638 7.6095L16.2387 7.73946ZM15.4759 7.94915L15.4869 8.09875L15.4759 7.94915ZM14.9371 7.959L14.9383 7.80901L14.9371 7.959ZM3.0644 7.959L3.06321 7.80901H3.06321L3.0644 7.959ZM2.52566 7.94915L2.53666 7.79955L2.52566 7.94915ZM1.76286 7.73946L1.68796 7.86942L1.76286 7.73946ZM15.8704 7.61657L16.0177 7.64482L15.8704 7.61657ZM15.4273 6.96328L15.4556 6.81597L15.4273 6.96328ZM14.6201 14.1356L14.4728 14.1074L14.4728 14.1074L14.6201 14.1356ZM13.7808 16.1463L13.8893 16.2498L13.7808 16.1463ZM4.0839 16.1252L4.19063 16.0198L4.0839 16.1252ZM3.1694 14.0322L3.02136 14.0563L3.0214 14.0566L3.1694 14.0322ZM2.11992 7.60134L1.97188 7.6255L2.11992 7.60134ZM2.58089 6.96058L2.55673 6.81254L2.58089 6.96058ZM3.22165 7.42155L3.36969 7.39739L3.22165 7.42155ZM4.87821 15.3408L4.77148 15.4462V15.4462L4.87821 15.3408ZM12.9733 15.3756L12.8647 15.272V15.272L12.9733 15.3756ZM13.5237 13.9257L13.3764 13.8974L13.3764 13.8975L13.5237 13.9257ZM14.774 7.40632L14.9213 7.43457L14.774 7.40632ZM7.12633 2.05824C7.4025 1.78131 7.40188 1.33293 7.12495 1.05676L6.91311 1.26919C7.07272 1.42836 7.07308 1.68679 6.91391 1.8464L7.12633 2.05824ZM4.43233 4.75969L7.12633 2.05824L6.91391 1.8464L4.2199 4.54785L4.43233 4.75969ZM3.43085 4.76107C3.70778 5.03724 4.15616 5.03662 4.43233 4.75969L4.2199 4.54785C4.06073 4.70746 3.8023 4.70782 3.64269 4.54864L3.43085 4.76107ZM3.42947 3.75959C3.1533 4.03652 3.15392 4.4849 3.43085 4.76107L3.64269 4.54864C3.48308 4.38947 3.48272 4.13105 3.6419 3.97143L3.42947 3.75959ZM6.12348 1.05815L3.42947 3.75959L3.6419 3.97143L6.3359 1.26999L6.12348 1.05815ZM7.12495 1.05676C6.84802 0.780597 6.39964 0.781215 6.12348 1.05815L6.3359 1.26999C6.49507 1.11037 6.7535 1.11002 6.91311 1.26919L7.12495 1.05676ZM11.8671 1.0581C11.5909 0.781173 11.1425 0.780554 10.8656 1.05672L11.0774 1.26915C11.237 1.10997 11.4955 1.11033 11.6546 1.26994L11.8671 1.0581ZM14.5611 3.75955L11.8671 1.0581L11.6546 1.26994L14.3486 3.97139L14.5611 3.75955ZM14.5597 4.76103C14.8366 4.48486 14.8372 4.03648 14.5611 3.75955L14.3486 3.97139C14.5078 4.131 14.5075 4.38943 14.3478 4.5486L14.5597 4.76103ZM13.5582 4.75964C13.8344 5.03658 14.2828 5.03719 14.5597 4.76103L14.3478 4.5486C14.1882 4.70777 13.9298 4.70742 13.7706 4.5478L13.5582 4.75964ZM10.8642 2.0582L13.5582 4.75964L13.7706 4.54781L11.0766 1.84636L10.8642 2.0582ZM10.8656 1.05672C10.5887 1.33289 10.588 1.78127 10.8642 2.0582L11.0766 1.84636C10.9175 1.68675 10.9178 1.42832 11.0774 1.26915L10.8656 1.05672ZM2.26691 5.91166C2.26691 5.62479 2.30467 5.46028 2.34343 5.36683C2.37996 5.27876 2.41825 5.25118 2.43564 5.23954L2.26869 4.99028C2.20697 5.03162 2.12764 5.10403 2.06632 5.2519C2.00723 5.39438 1.96691 5.60175 1.96691 5.91166H2.26691ZM2.3944 6.64188C2.3925 6.64079 2.39347 6.64133 2.39395 6.6417C2.39417 6.64187 2.39228 6.64048 2.38872 6.63641C2.38156 6.6282 2.3654 6.6065 2.34704 6.55968C2.30956 6.46408 2.26691 6.27411 2.26691 5.91166H1.96691C1.96691 6.29294 2.01112 6.52476 2.06774 6.66919C2.09644 6.74239 2.12916 6.79526 2.16273 6.83371C2.19794 6.87404 2.22953 6.89314 2.24489 6.90197L2.3944 6.64188ZM2.61847 6.68625C2.46488 6.67497 2.40961 6.65065 2.39455 6.64197L2.24475 6.90189C2.31661 6.94331 2.42404 6.97278 2.59648 6.98545L2.61847 6.68625ZM3.01779 6.69283C2.85723 6.69404 2.73555 6.69486 2.61847 6.68625L2.59648 6.98545C2.72798 6.99511 2.86245 6.99401 3.02004 6.99283L3.01779 6.69283ZM3.21089 6.69191C3.14102 6.69191 3.07697 6.69239 3.01779 6.69283L3.02004 6.99283C3.07931 6.99238 3.1423 6.99191 3.21089 6.99191V6.69191ZM14.7906 6.69191H3.21089V6.99191H14.7906V6.69191ZM14.9837 6.69283C14.9246 6.69239 14.8605 6.69191 14.7906 6.69191V6.99191C14.8592 6.99191 14.9222 6.99238 14.9815 6.99283L14.9837 6.69283ZM15.3831 6.68625C15.266 6.69486 15.1443 6.69404 14.9837 6.69283L14.9815 6.99283C15.1391 6.99401 15.2735 6.99511 15.405 6.98545L15.3831 6.68625ZM15.6064 6.64232C15.5914 6.65092 15.5369 6.67495 15.3831 6.68625L15.405 6.98545C15.5772 6.9728 15.6842 6.94374 15.7562 6.90224L15.6064 6.64232ZM15.7346 5.91166C15.7346 6.27406 15.6918 6.46408 15.6542 6.55974C15.6358 6.60659 15.6196 6.62836 15.6124 6.63663C15.6105 6.63874 15.6091 6.64012 15.6083 6.64092C15.6078 6.64132 15.6075 6.6416 15.6073 6.64177C15.6071 6.64193 15.607 6.64201 15.607 6.64202C15.607 6.64202 15.6071 6.64197 15.6072 6.64187C15.6073 6.64178 15.6075 6.64168 15.6076 6.64159C15.6079 6.64141 15.6081 6.6413 15.6065 6.64224L15.756 6.90233C15.7714 6.8935 15.803 6.8744 15.8382 6.83409C15.8718 6.79563 15.9046 6.74274 15.9334 6.66948C15.9902 6.52493 16.0346 6.29299 16.0346 5.91166H15.7346ZM15.5659 5.23954C15.5833 5.25118 15.6216 5.27876 15.6581 5.36683C15.6969 5.46028 15.7346 5.62479 15.7346 5.91166H16.0346C16.0346 5.60175 15.9943 5.39438 15.9352 5.2519C15.8739 5.10403 15.7946 5.03162 15.7328 4.99028L15.5659 5.23954ZM14.7906 5.13141C15.0251 5.13141 15.196 5.14144 15.3225 5.16138C15.4495 5.18138 15.5216 5.20985 15.5659 5.23954L15.7328 4.99028C15.638 4.92676 15.5181 4.88849 15.3692 4.86503C15.2199 4.84152 15.031 4.83141 14.7906 4.83141V5.13141ZM3.21089 5.13141H14.7906V4.83141H3.21089V5.13141ZM2.43564 5.23954C2.47996 5.20985 2.55203 5.18138 2.67899 5.16138C2.80557 5.14144 2.97646 5.13141 3.21089 5.13141V4.83141C2.97049 4.83141 2.7816 4.84152 2.63231 4.86503C2.48341 4.88849 2.36352 4.92676 2.26869 4.99028L2.43564 5.23954ZM3.21089 3.71511C2.7743 3.71511 2.14819 3.72743 1.64748 4.0628L1.81443 4.31205C2.22985 4.03381 2.76638 4.01511 3.21089 4.01511V3.71511ZM14.7906 3.71511H3.21089V4.01511H14.7906V3.71511ZM16.354 4.0628C15.8533 3.72743 15.2272 3.71511 14.7906 3.71511V4.01511C15.2351 4.01511 15.7717 4.03381 16.1871 4.31205L16.354 4.0628ZM17.1509 5.91166C17.1509 5.10762 16.9315 4.44955 16.354 4.0628L16.1871 4.31205C16.6459 4.61935 16.8509 5.1557 16.8509 5.91166H17.1509ZM16.3136 7.86942C16.9571 7.49855 17.1509 6.77537 17.1509 5.91166H16.8509C16.8509 6.74965 16.6605 7.3232 16.1638 7.6095L16.3136 7.86942ZM15.4869 8.09875C15.7288 8.08096 16.03 8.03284 16.3136 7.86942L16.1638 7.6095C15.937 7.74017 15.688 7.78315 15.4649 7.79955L15.4869 8.09875ZM14.9359 8.109C15.1068 8.11036 15.3061 8.11203 15.4869 8.09875L15.4649 7.79955C15.2985 7.81178 15.1118 7.81039 14.9383 7.80901L14.9359 8.109ZM14.7906 8.10821C14.8362 8.10821 14.8848 8.10859 14.9359 8.109L14.9383 7.80901C14.8874 7.80861 14.8376 7.80821 14.7906 7.80821V8.10821ZM3.21089 8.10821H14.7906V7.80821H3.21089V8.10821ZM3.06559 8.109C3.11673 8.10859 3.16529 8.10821 3.21089 8.10821V7.80821C3.16388 7.80821 3.11409 7.80861 3.06321 7.80901L3.06559 8.109ZM2.51467 8.09875C2.69545 8.11203 2.89477 8.11036 3.06559 8.109L3.06321 7.80901C2.88974 7.81039 2.70305 7.81178 2.53666 7.79955L2.51467 8.09875ZM1.68796 7.86942C1.97152 8.03284 2.27269 8.08096 2.51467 8.09875L2.53666 7.79955C2.3135 7.78315 2.06449 7.74017 1.83776 7.6095L1.68796 7.86942ZM0.85061 5.91166C0.85061 6.77537 1.04446 7.49855 1.68796 7.86942L1.83776 7.6095C1.341 7.3232 1.15061 6.74965 1.15061 5.91166H0.85061ZM1.64748 4.0628C1.07005 4.44955 0.85061 5.10762 0.85061 5.91166H1.15061C1.15061 5.1557 1.35563 4.61935 1.81443 4.31205L1.64748 4.0628ZM16.0177 7.64482C16.0913 7.26072 15.8397 6.88963 15.4556 6.81597L15.3991 7.1106C15.6204 7.15306 15.7655 7.36694 15.723 7.58832L16.0177 7.64482ZM14.7674 14.1639L16.0177 7.64482L15.723 7.58832L14.4728 14.1074L14.7674 14.1639ZM13.8893 16.2498C14.4592 15.6527 14.6364 14.8483 14.7674 14.1638L14.4728 14.1074C14.3406 14.7977 14.1739 15.5171 13.6723 16.0427L13.8893 16.2498ZM11.1472 17.15C12.3931 17.15 13.289 16.8788 13.8893 16.2498L13.6723 16.0427C13.1534 16.5864 12.3558 16.85 11.1472 16.85V17.15ZM6.6597 17.15H11.1472V16.85H6.6597V17.15ZM3.97716 16.2306C4.5938 16.855 5.48059 17.15 6.6597 17.15V16.85C5.52907 16.85 4.73195 16.568 4.19063 16.0198L3.97716 16.2306ZM3.0214 14.0566C3.14739 14.8204 3.38057 15.6264 3.97716 16.2306L4.19063 16.0198C3.66074 15.4832 3.44045 14.7538 3.3174 14.0078L3.0214 14.0566ZM2.55673 6.81254C2.17073 6.87553 1.90889 7.23951 1.97188 7.6255L2.26796 7.57718C2.23166 7.35471 2.38258 7.14493 2.60505 7.10862L2.55673 6.81254ZM3.36969 7.39739C3.3067 7.01139 2.94272 6.74955 2.55673 6.81254L2.60505 7.10862C2.82752 7.07232 3.0373 7.22324 3.07361 7.44571L3.36969 7.39739ZM4.41886 13.8263L3.36969 7.39739L3.07361 7.44571L4.12277 13.8747L4.41886 13.8263ZM4.41881 13.826C4.41881 13.826 4.41881 13.826 4.41881 13.826C4.4188 13.826 4.41881 13.8261 4.4188 13.826C4.4188 13.826 4.4188 13.826 4.4188 13.826C4.4188 13.826 4.4188 13.826 4.4188 13.826C4.4188 13.826 4.4188 13.826 4.4188 13.826C4.4188 13.826 4.4188 13.826 4.4188 13.826C4.4188 13.826 4.4188 13.826 4.4188 13.826C4.4188 13.826 4.4188 13.826 4.4188 13.826C4.29526 13.9984 4.12282 13.8749 4.12282 13.8749C4.12282 13.8749 4.12282 13.8749 4.12282 13.8749C4.12282 13.8749 4.12282 13.8749 4.12282 13.875C4.12283 13.875 4.12283 13.875 4.12283 13.875C4.12283 13.875 4.12283 13.875 4.12283 13.875C4.12283 13.875 4.12283 13.875 4.12283 13.875C4.12283 13.875 4.29528 13.9985 4.41882 13.8261C4.41882 13.8261 4.41882 13.8261 4.41882 13.8261C4.41882 13.8261 4.41882 13.8261 4.41882 13.8261C4.41882 13.8261 4.41882 13.8261 4.41882 13.8261C4.41882 13.8261 4.41882 13.8261 4.41881 13.8261C4.41871 13.8254 4.41892 13.8267 4.41881 13.8261C4.41881 13.826 4.41882 13.8261 4.41881 13.826L4.12282 13.875C4.12283 13.875 4.12282 13.875 4.12283 13.875C4.12283 13.875 4.12282 13.8749 4.12283 13.875C4.12283 13.875 4.12283 13.875 4.12283 13.875C4.12283 13.875 4.12283 13.875 4.12283 13.875C4.12283 13.875 4.12283 13.875 4.12283 13.875C4.12283 13.875 4.12283 13.875 4.12283 13.875C4.12283 13.875 4.12283 13.875 4.12283 13.875C4.12283 13.875 4.12283 13.875 4.12283 13.875C4.12283 13.875 4.12283 13.875 4.12283 13.875C4.24637 13.7026 4.41882 13.8261 4.41882 13.8261C4.41882 13.8261 4.41882 13.8261 4.41882 13.8261C4.41881 13.8261 4.41882 13.8261 4.41881 13.826C4.41881 13.826 4.4188 13.826 4.4188 13.826C4.4188 13.826 4.4188 13.826 4.4188 13.826C4.4188 13.826 4.24635 13.7025 4.12282 13.8749C4.12282 13.8749 4.12282 13.8749 4.12282 13.8749C4.12282 13.8749 4.12282 13.8749 4.12282 13.8749C4.12282 13.8749 4.12282 13.8749 4.12282 13.8749C4.12282 13.8749 4.12282 13.8749 4.12282 13.8749C4.12293 13.8756 4.12271 13.8743 4.12282 13.8749C4.12283 13.875 4.12282 13.8749 4.12282 13.875L4.41881 13.826ZM4.98494 15.2354C4.7035 14.9504 4.53099 14.5058 4.41881 13.8261L4.12282 13.8749C4.2379 14.5723 4.42324 15.0936 4.77148 15.4462L4.98494 15.2354ZM6.6597 15.7337C5.71071 15.7337 5.24662 15.5004 4.98494 15.2354L4.77148 15.4462C5.10816 15.7872 5.6616 16.0337 6.6597 16.0337V15.7337ZM11.1472 15.7337H6.6597V16.0337H11.1472V15.7337ZM12.8647 15.272C12.6481 15.499 12.2154 15.7337 11.1472 15.7337V16.0337C12.2535 16.0337 12.7841 15.7911 13.0818 15.4791L12.8647 15.272ZM13.3764 13.8975C13.2394 14.613 13.1114 15.0135 12.8647 15.272L13.0818 15.4791C13.3972 15.1486 13.5355 14.6618 13.6711 13.9539L13.3764 13.8975ZM14.6267 7.37807L13.3764 13.8974L13.6711 13.9539L14.9213 7.43457L14.6267 7.37807ZM15.4556 6.81597C15.0715 6.74231 14.7004 6.99397 14.6267 7.37807L14.9213 7.43457C14.9638 7.21319 15.1777 7.06814 15.3991 7.1106L15.4556 6.81597ZM1.97188 7.6255L3.02136 14.0563L3.31744 14.008L2.26796 7.57718L1.97188 7.6255Z" fill="#E50D32"/>
<path fill-rule="evenodd" clip-rule="evenodd" d="M8.89156 13.8374C8.70402 13.8374 8.55198 13.6853 8.55198 13.4978L8.55198 9.71174C8.55198 9.5242 8.70402 9.37216 8.89156 9.37216L9.10544 9.37216C9.29299 9.37216 9.44502 9.5242 9.44502 9.71174L9.44502 13.4978C9.44502 13.6853 9.29299 13.8374 9.10544 13.8374L8.89156 13.8374Z" fill="#E50D32" stroke="#E50D32" stroke-width="0.3"/>
<path fill-rule="evenodd" clip-rule="evenodd" d="M11.2285 11.7117C11.2285 11.8993 11.0765 12.0513 10.8889 12.0513H7.10287C6.91533 12.0513 6.76329 11.8993 6.76329 11.7117V11.4978C6.76329 11.3103 6.91533 11.1582 7.10287 11.1582H10.8889C11.0765 11.1582 11.2285 11.3103 11.2285 11.4978V11.7117Z" fill="#E50D32" stroke="#E50D32" stroke-width="0.3"/>
</svg>
